<svg width="37" height="36" viewBox="0 0 37 36" fill="none" xmlns="http://www.w3.org/2000/svg">
<g clip-path="url(#clip0_21_1535)">
<path d="M20.7702 2.64374H6.49344C5.84536 2.64374 5.31995 3.16595 5.31995 3.81008C5.31995 4.45421 5.84536 4.97643 6.49344 4.97643H12.5933C11.3087 5.77629 10.1485 6.75837 9.14956 7.89158H1.17349C0.525409 7.89165 0 8.41393 0 9.05807C0 9.7022 0.525409 10.2244 1.17349 10.2244H7.45194C6.09806 12.5065 5.31988 15.1644 5.31988 17.9999C5.31988 21.2993 6.37247 24.3588 8.16099 26.8647H4.8314C4.18332 26.8647 3.65791 27.3869 3.65791 28.031C3.65791 28.6752 4.18332 29.1974 4.8314 29.1974H10.2092C10.9426 29.8812 11.7411 30.4928 12.5933 31.0233H1.29453C0.64645 31.0233 0.121041 31.5455 0.121041 32.1897C0.121041 32.8338 0.64645 33.356 1.29453 33.356H20.7702C29.2896 33.356 36.2204 26.4672 36.2204 17.9998C36.2204 9.53247 29.2895 2.64374 20.7702 2.64374ZM20.7702 31.0235C13.545 31.0235 7.667 25.1812 7.667 18C7.667 10.8188 13.545 4.9765 20.7702 4.9765C27.9953 4.9765 33.8734 10.8188 33.8734 17.9999C33.8734 25.1811 27.9954 31.0235 20.7702 31.0235Z" fill="#D10014"/>
<path d="M20.7703 8.47314C15.485 8.47314 11.1851 12.7469 11.1851 18C11.1851 21.1326 12.7145 23.9168 15.0699 25.6542C15.0915 25.6724 15.1129 25.6906 15.1362 25.7073C15.1624 25.7262 15.1892 25.7439 15.2163 25.7603C16.7842 26.872 18.7017 27.5268 20.7703 27.5268C22.8388 27.5268 24.7562 26.872 26.3242 25.7603C26.3514 25.7439 26.3781 25.7262 26.4043 25.7073C26.4275 25.6905 26.449 25.6722 26.4706 25.6542C28.826 23.9168 30.3554 21.1327 30.3554 18C30.3554 12.7469 26.0555 8.47314 20.7703 8.47314ZM21.9437 10.901C24.2338 11.2737 26.1658 12.7179 27.1992 14.6974L24.1604 15.6788C23.6326 14.9195 22.8536 14.3459 21.9438 14.0765V10.901H21.9437ZM22.542 17.9999C22.542 18.9709 21.7472 19.7609 20.7703 19.7609C19.7933 19.7609 18.9985 18.971 18.9985 17.9999C18.9985 17.0289 19.7933 16.2389 20.7703 16.2389C21.7472 16.2389 22.542 17.0289 22.542 17.9999ZM19.5967 10.901V14.0765C18.6867 14.3459 17.9079 14.9195 17.38 15.6788L14.3413 14.6974C15.3748 12.7179 17.3067 11.2736 19.5967 10.901ZM15.6249 23.0545C14.3319 21.7543 13.5321 19.9683 13.5321 17.9999C13.5321 17.6313 13.5603 17.2692 13.6143 16.9154L16.6541 17.8971C16.6532 17.9314 16.6514 17.9654 16.6514 17.9999C16.6514 18.9348 16.969 19.797 17.5017 20.4869L15.6249 23.0545ZM20.7703 25.194C19.6029 25.194 18.4995 24.9177 17.5221 24.4277L19.3993 21.8597C19.8285 22.0108 20.2897 22.0938 20.7703 22.0938C21.2508 22.0938 21.7121 22.0108 22.1412 21.8597L24.0184 24.4277C23.041 24.9175 21.9376 25.194 20.7703 25.194ZM25.9155 23.0545L24.0387 20.487C24.5714 19.797 24.8891 18.9349 24.8891 18C24.8891 17.9655 24.8874 17.9314 24.8864 17.8971L27.9261 16.9154C27.9809 17.2744 28.0084 17.6369 28.0083 18C28.0084 19.9683 27.2087 21.7542 25.9155 23.0545Z" fill="#D10014"/>
</g>
<defs>
<clipPath id="clip0_21_1535">
<rect width="36.2205" height="36" fill="white"/>
</clipPath>
</defs>
</svg>
