<svg width="480" height="76" viewBox="0 0 480 76" fill="none" xmlns="http://www.w3.org/2000/svg">
<path d="M460.561 61.4841C457.704 61.4841 455.118 61.0053 452.805 60.0477C450.492 59.0445 448.519 57.6993 446.887 56.0121C445.254 54.2793 443.984 52.3185 443.077 50.1297C442.215 47.8953 441.784 45.5469 441.784 43.0845C441.784 39.6645 442.533 36.5409 444.029 33.7137C445.571 30.8865 447.748 28.6293 450.56 26.9421C453.418 25.2093 456.774 24.3429 460.629 24.3429C464.529 24.3429 467.863 25.2093 470.63 26.9421C473.396 28.6293 475.505 30.8865 476.957 33.7137C478.453 36.4953 479.202 39.5049 479.202 42.7425C479.202 43.2897 479.179 43.8597 479.134 44.4525C479.088 44.9997 479.043 45.4557 478.998 45.8205H451.445C451.626 47.6445 452.148 49.2405 453.01 50.6085C453.917 51.9765 455.05 53.0253 456.411 53.7549C457.817 54.4389 459.314 54.7809 460.901 54.7809C462.715 54.7809 464.416 54.3477 466.004 53.4813C467.636 52.5693 468.747 51.3837 469.337 49.9245L477.161 52.1133C476.299 53.9373 475.052 55.5561 473.419 56.9697C471.832 58.3833 469.949 59.5005 467.772 60.3213C465.595 61.0965 463.192 61.4841 460.561 61.4841ZM451.241 40.0065H469.881C469.7 38.1825 469.178 36.6093 468.317 35.2869C467.5 33.9189 466.412 32.8701 465.051 32.1405C463.69 31.3653 462.171 30.9777 460.493 30.9777C458.86 30.9777 457.364 31.3653 456.003 32.1405C454.688 32.8701 453.599 33.9189 452.737 35.2869C451.921 36.6093 451.422 38.1825 451.241 40.0065Z" fill="white"/>
<path d="M422.561 61.4841C419.658 61.4841 417.05 61.0053 414.737 60.0477C412.424 59.0445 410.451 57.6765 408.818 55.9437C407.185 54.1653 405.916 52.1589 405.008 49.9245C404.147 47.6901 403.716 45.3417 403.716 42.8793C403.716 39.5049 404.464 36.4269 405.961 33.6453C407.503 30.8181 409.68 28.5609 412.492 26.8737C415.304 25.1865 418.637 24.3429 422.493 24.3429C426.348 24.3429 429.659 25.1865 432.425 26.8737C435.192 28.5609 437.255 30.7725 438.616 33.5085L429.704 36.2445C428.933 34.9221 427.912 33.9189 426.642 33.2349C425.373 32.5053 423.967 32.1405 422.425 32.1405C420.701 32.1405 419.114 32.5965 417.662 33.5085C416.256 34.3749 415.145 35.6289 414.329 37.2705C413.512 38.8665 413.104 40.7361 413.104 42.8793C413.104 44.9769 413.512 46.8465 414.329 48.4881C415.19 50.0841 416.324 51.3609 417.73 52.3185C419.136 53.2305 420.701 53.6865 422.425 53.6865C423.513 53.6865 424.533 53.5041 425.486 53.1393C426.484 52.7745 427.368 52.2729 428.139 51.6345C428.91 50.9961 429.477 50.2665 429.84 49.4457L438.752 52.1817C437.936 53.9601 436.734 55.5561 435.146 56.9697C433.604 58.3833 431.768 59.5005 429.636 60.3213C427.55 61.0965 425.191 61.4841 422.561 61.4841Z" fill="white"/>
<path d="M388.621 60.8V24.9584H397.737V60.8H388.621ZM388.621 19.9652V10.868H397.737V19.9652H388.621Z" fill="white"/>
<path d="M360.809 60.8001L347.679 24.9585H357.136L366.116 52.4553L375.164 24.9585H383.804L370.742 60.8001H360.809Z" fill="white"/>
<path d="M346.134 32.8928C343.367 32.8928 340.895 33.44 338.718 34.5344C336.541 35.5832 334.976 37.1108 334.024 39.1172V60.8H324.908V24.9584H333.276V32.6192C334.546 30.1568 336.156 28.2188 338.106 26.8052C340.056 25.3916 342.12 24.6164 344.297 24.4796C344.796 24.4796 345.181 24.4796 345.453 24.4796C345.725 24.4796 345.952 24.5024 346.134 24.548V32.8928Z" fill="white"/>
<path d="M300.714 61.4841C297.856 61.4841 295.271 61.0053 292.958 60.0477C290.645 59.0445 288.672 57.6993 287.039 56.0121C285.406 54.2793 284.137 52.3185 283.229 50.1297C282.368 47.8953 281.937 45.5469 281.937 43.0845C281.937 39.6645 282.685 36.5409 284.182 33.7137C285.724 30.8865 287.901 28.6293 290.713 26.9421C293.57 25.2093 296.926 24.3429 300.782 24.3429C304.682 24.3429 308.016 25.2093 310.782 26.9421C313.549 28.6293 315.658 30.8865 317.109 33.7137C318.606 36.4953 319.354 39.5049 319.354 42.7425C319.354 43.2897 319.332 43.8597 319.286 44.4525C319.241 44.9997 319.195 45.4557 319.15 45.8205H291.597C291.779 47.6445 292.3 49.2405 293.162 50.6085C294.069 51.9765 295.203 53.0253 296.564 53.7549C297.97 54.4389 299.466 54.7809 301.054 54.7809C302.868 54.7809 304.569 54.3477 306.156 53.4813C307.789 52.5693 308.9 51.3837 309.49 49.9245L317.313 52.1133C316.452 53.9373 315.204 55.5561 313.572 56.9697C311.984 58.3833 310.102 59.5005 307.925 60.3213C305.748 61.0965 303.344 61.4841 300.714 61.4841ZM291.393 40.0065H310.034C309.852 38.1825 309.331 36.6093 308.469 35.2869C307.653 33.9189 306.564 32.8701 305.204 32.1405C303.843 31.3653 302.324 30.9777 300.646 30.9777C299.013 30.9777 297.516 31.3653 296.155 32.1405C294.84 32.8701 293.752 33.9189 292.89 35.2869C292.074 36.6093 291.575 38.1825 291.393 40.0065Z" fill="white"/>
<path d="M272.121 24.9584C271.804 24.6392 271.214 24.206 270.352 23.6588C269.536 23.1116 268.516 22.5872 267.291 22.0856C266.112 21.584 264.819 21.1508 263.413 20.786C262.007 20.3756 260.579 20.1704 259.127 20.1704C256.587 20.1704 254.66 20.6492 253.345 21.6068C252.075 22.5644 251.44 23.9096 251.44 25.6424C251.44 26.9648 251.848 28.0136 252.664 28.7888C253.481 29.564 254.705 30.2252 256.338 30.7724C257.971 31.3196 260.012 31.9124 262.461 32.5508C265.636 33.326 268.379 34.2836 270.693 35.4236C273.051 36.518 274.842 37.9772 276.067 39.8012C277.337 41.5796 277.972 43.9508 277.972 46.9148C277.972 49.514 277.496 51.7484 276.543 53.618C275.591 55.442 274.276 56.924 272.597 58.0641C270.919 59.2041 269.014 60.0476 266.883 60.5948C264.751 61.0964 262.483 61.3472 260.08 61.3472C257.676 61.3472 255.272 61.0964 252.868 60.5948C250.465 60.0932 248.151 59.3865 245.929 58.4744C243.707 57.5168 241.666 56.3769 239.806 55.0544L243.956 46.9148C244.364 47.3252 245.09 47.8724 246.133 48.5564C247.176 49.1948 248.446 49.856 249.943 50.5401C251.44 51.1784 253.072 51.7257 254.841 52.1816C256.61 52.6376 258.402 52.8656 260.216 52.8656C262.756 52.8656 264.683 52.4324 265.998 51.566C267.314 50.6996 267.971 49.4684 267.971 47.8724C267.971 46.4132 267.45 45.2732 266.407 44.4524C265.363 43.6316 263.912 42.9248 262.053 42.332C260.193 41.6936 257.993 41.0096 255.453 40.28C252.415 39.4136 249.875 38.456 247.834 37.4072C245.793 36.3128 244.274 34.9448 243.276 33.3032C242.278 31.6616 241.779 29.6096 241.779 27.1472C241.779 23.8184 242.55 21.0368 244.092 18.8024C245.68 16.5224 247.811 14.8124 250.487 13.6724C253.163 12.4868 256.134 11.894 259.399 11.894C261.667 11.894 263.799 12.1448 265.794 12.6464C267.835 13.148 269.74 13.8092 271.509 14.63C273.278 15.4508 274.865 16.34 276.271 17.2976L272.121 24.9584Z" fill="white"/>
<path d="M218.264 61.4841C215.361 61.4841 212.753 61.0053 210.44 60.0477C208.127 59.0445 206.154 57.6765 204.521 55.9437C202.934 54.2109 201.709 52.2273 200.848 49.9929C199.986 47.7585 199.555 45.4101 199.555 42.9477C199.555 40.4397 199.986 38.0685 200.848 35.8341C201.709 33.5997 202.934 31.6161 204.521 29.8833C206.154 28.1505 208.127 26.8053 210.44 25.8477C212.753 24.8445 215.361 24.3429 218.264 24.3429C221.166 24.3429 223.752 24.8445 226.019 25.8477C228.332 26.8053 230.305 28.1505 231.938 29.8833C233.571 31.6161 234.795 33.5997 235.612 35.8341C236.473 38.0685 236.904 40.4397 236.904 42.9477C236.904 45.4101 236.473 47.7585 235.612 49.9929C234.795 52.2273 233.571 54.2109 231.938 55.9437C230.351 57.6765 228.4 59.0445 226.087 60.0477C223.774 61.0053 221.166 61.4841 218.264 61.4841ZM208.943 42.9477C208.943 45.0453 209.351 46.9149 210.168 48.5565C210.984 50.1525 212.095 51.4065 213.501 52.3185C214.907 53.2305 216.495 53.6865 218.264 53.6865C219.987 53.6865 221.552 53.2305 222.958 52.3185C224.364 51.3609 225.475 50.0841 226.291 48.4881C227.153 46.8465 227.584 44.9769 227.584 42.8793C227.584 40.8273 227.153 38.9805 226.291 37.3389C225.475 35.6973 224.364 34.4205 222.958 33.5085C221.552 32.5965 219.987 32.1405 218.264 32.1405C216.495 32.1405 214.907 32.6193 213.501 33.5769C212.095 34.4889 210.984 35.7657 210.168 37.4073C209.351 39.0033 208.943 40.8501 208.943 42.9477Z" fill="white"/>
<path d="M197.517 58.9532C196.746 59.2724 195.816 59.6372 194.728 60.0476C193.639 60.458 192.46 60.7772 191.19 61.0052C189.966 61.2789 188.718 61.4156 187.449 61.4156C185.77 61.4156 184.228 61.1192 182.822 60.5264C181.416 59.9336 180.283 58.9988 179.421 57.722C178.604 56.3996 178.196 54.6896 178.196 52.592V32.0036H173.502V24.9584H178.196V13.3304H187.312V24.9584H194.796V32.0036H187.312V49.514C187.358 50.7452 187.698 51.6344 188.333 52.1816C188.968 52.7288 189.762 53.0024 190.714 53.0024C191.667 53.0024 192.596 52.8428 193.503 52.5236C194.41 52.2044 195.136 51.9308 195.68 51.7028L197.517 58.9532Z" fill="white"/>
<path d="M133.893 47.3937V24.9585H143.01V45.4101C143.01 48.1461 143.509 50.2209 144.506 51.6345C145.504 53.0025 146.978 53.6865 148.928 53.6865C150.108 53.6865 151.264 53.4585 152.398 53.0025C153.577 52.5009 154.643 51.7713 155.595 50.8137C156.593 49.8561 157.432 48.6477 158.113 47.1885V24.9585H167.229V50.5401C167.229 51.4977 167.388 52.1817 167.705 52.5921C168.068 53.0025 168.635 53.2533 169.406 53.3445V60.8001C168.499 60.9369 167.728 61.0281 167.093 61.0737C166.503 61.1649 165.959 61.2105 165.46 61.2105C163.827 61.2105 162.489 60.8457 161.446 60.1161C160.448 59.3409 159.859 58.2921 159.677 56.9697L159.473 54.0969C157.886 56.5137 155.845 58.3605 153.35 59.6373C150.856 60.8685 148.112 61.4841 145.119 61.4841C141.445 61.4841 138.656 60.2985 136.751 57.9273C134.846 55.5105 133.893 51.9993 133.893 47.3937Z" fill="white"/>
<path d="M103.204 12.2361H112.728L130.484 60.8001H120.824L116.334 48.6933H99.462L95.04 60.8001H85.3795L103.204 12.2361ZM114.633 42.0585L107.966 22.0173L101.027 42.0585H114.633Z" fill="white"/>
<g clip-path="url(#clip0_8_537)">
<path d="M43.3465 5.5813H13.5515C12.199 5.5813 11.1025 6.68374 11.1025 8.04358C11.1025 9.40342 12.199 10.5059 13.5515 10.5059H26.2817C23.6008 12.1945 21.1796 14.2677 19.0947 16.6601H2.44902C1.09651 16.6602 0 17.7628 0 19.1227C0 20.4825 1.09651 21.5849 2.44902 21.5849H15.5519C12.7264 26.4026 11.1024 32.0139 11.1024 37.9999C11.1024 44.9652 13.2991 51.4243 17.0316 56.7144H10.0829C8.73041 56.7144 7.63391 57.8169 7.63391 59.1767C7.63391 60.5366 8.73041 61.639 10.0829 61.639H21.3062C22.8368 63.0827 24.5031 64.3737 26.2817 65.4938H2.70162C1.34911 65.4938 0.252608 66.5962 0.252608 67.9561C0.252608 69.3159 1.34911 70.4184 2.70162 70.4184H43.3465C61.126 70.4184 75.5904 55.8753 75.5904 37.9998C75.5904 20.1242 61.1259 5.5813 43.3465 5.5813ZM43.3465 65.4941C28.2679 65.4941 16.0007 53.1604 16.0007 38C16.0007 22.8397 28.2679 10.506 43.3465 10.506C58.425 10.506 70.6922 22.8397 70.6922 37.9999C70.6922 53.1601 58.4251 65.4941 43.3465 65.4941Z" fill="#E6B300"/>
<path d="M43.3465 17.8878C32.3163 17.8878 23.3426 26.9101 23.3426 38.0001C23.3426 44.6134 26.5344 50.4911 31.4501 54.159C31.4952 54.1973 31.5399 54.2359 31.5885 54.271C31.6431 54.311 31.6991 54.3482 31.7556 54.383C35.0279 56.7299 39.0296 58.1121 43.3465 58.1121C47.6634 58.1121 51.665 56.7299 54.9374 54.383C54.9941 54.3482 55.0499 54.311 55.1045 54.271C55.153 54.2356 55.1978 54.197 55.2429 54.159C60.1585 50.4911 63.3504 44.6135 63.3504 38.0001C63.3504 26.9103 54.3767 17.8878 43.3465 17.8878ZM45.7955 23.0132C50.5748 23.8001 54.6067 26.849 56.7635 31.0279L50.4216 33.0998C49.3201 31.4969 47.6944 30.2858 45.7957 29.7171V23.0132H45.7955ZM47.0441 37.9999C47.0441 40.0498 45.3854 41.7175 43.3465 41.7175C41.3076 41.7175 39.6489 40.05 39.6489 37.9999C39.6489 35.95 41.3076 34.2823 43.3465 34.2823C45.3854 34.2823 47.0441 35.95 47.0441 37.9999ZM40.8973 23.0132V29.7171C38.9983 30.2858 37.3729 31.4969 36.2713 33.0998L29.9295 31.0279C32.0865 26.849 36.1183 23.7999 40.8973 23.0132ZM32.6084 48.6706C29.9098 45.9257 28.2408 42.1553 28.2408 37.9999C28.2408 37.2218 28.2996 36.4572 28.4123 35.7103L34.7562 37.7827C34.7544 37.8552 34.7506 37.927 34.7506 37.9999C34.7506 39.9735 35.4135 41.7937 36.5252 43.2503L32.6084 48.6706ZM43.3465 53.1874C40.9103 53.1874 38.6075 52.6041 36.5677 51.5696L40.4854 46.1484C41.381 46.4672 42.3436 46.6425 43.3465 46.6425C44.3494 46.6425 45.312 46.4672 46.2076 46.1484L50.1253 51.5696C48.0855 52.6038 45.7827 53.1874 43.3465 53.1874ZM54.0845 48.6706L50.1677 43.2504C51.2794 41.7938 51.9423 39.9737 51.9423 38.0001C51.9423 37.9272 51.9387 37.8553 51.9367 37.7829L58.2805 35.7104C58.3949 36.4682 58.4522 37.2336 58.4521 38.0001C58.4522 42.1553 56.7833 45.9256 54.0845 48.6706Z" fill="#E6B300"/>
</g>
<defs>
<clipPath id="clip0_8_537">
<rect width="75.5905" height="76" fill="white"/>
</clipPath>
</defs>
</svg>
